<svg xmlns="http://www.w3.org/2000/svg" xmlns:xlink="http://www.w3.org/1999/xlink" viewBox="0 0 60.62 61.39"><defs><style>.a,.f{fill:none;}.b{fill:#f9ce9b;}.b,.d,.f,.h{stroke:#323232;stroke-miterlimit:10;}.b,.d{stroke-width:1.5px;}.c{clip-path:url(#a);}.d,.g{fill:#fff;}.e{fill:#323232;}.f{stroke-width:0.75px;}.h{fill:#fff2ae;stroke-width:0.5px;}</style><clipPath id="a"><path class="a" d="M9,50.43A17.18,17.18,0,0,0,25,60.67a44,44,0,0,0,14.51-3c5.29-2,10.64-4.44,14.18-7.49l.41-.34.21-.18h0a17.1,17.1,0,0,0,3.42-21.18l-.3-.52A10.51,10.51,0,0,0,54,27.47,11.52,11.52,0,0,0,43.24,35,11.4,11.4,0,0,0,36,32.42c-6.06,0-10.15,4.38-11.1,9.89,0,.33-.07.67-.08,1-2-.86-2.31-1-5.44-1a10.89,10.89,0,0,0-10.61,7.6Z"/></clipPath></defs><title>Asset 1</title><path class="b" d="M57.32,27.93l.3.52A17.1,17.1,0,0,1,54.2,49.63h0l-.21.18-.41.34C50,53.2,44.69,55.61,39.4,57.64a44,44,0,0,1-14.51,3A17.16,17.16,0,0,1,7.49,43.75V42.39a2.2,2.2,0,0,1-1-.41C1.34,38.69.69,30.64.75,30.11a3.16,3.16,0,0,1,.32-1c2.49-3.42,9.24-2.23,11.38-1.75A23.71,23.71,0,0,1,38.45,16c1.14-1.73,5.25-7.45,9.49-6.69a2.84,2.84,0,0,1,1,.52c.41.35,5.51,6.6,4.07,12.55a2.9,2.9,0,0,1-.24.7,17.55,17.55,0,0,1,4.87,5.42"/><g class="c"><path class="d" d="M57.32,27.93l.3.52A17.1,17.1,0,0,1,54.2,49.63h0l-.21.18-.41.34C50,53.2,44.69,55.61,39.4,57.64a44,44,0,0,1-14.51,3A17.16,17.16,0,0,1,7.49,43.75V42.39a2.2,2.2,0,0,1-1-.41C1.34,38.69.69,30.64.75,30.11a3.16,3.16,0,0,1,.32-1c2.49-3.42,9.24-2.23,11.38-1.75A23.71,23.71,0,0,1,38.45,16c1.14-1.73,5.25-7.45,9.49-6.69a2.84,2.84,0,0,1,1,.52c.41.35,5.51,6.6,4.07,12.55a2.9,2.9,0,0,1-.24.7,17.55,17.55,0,0,1,4.87,5.42"/></g><path class="e" d="M20.63,42.57s-3.37,2.24-4.06,0,2-5.09,2-5.09a7.81,7.81,0,0,1,4.11-1,1.19,1.19,0,0,1,.69.68c.26.57.69,2.18-1.08,4.15C22.32,41.33,21.11,42.55,20.63,42.57Z"/><path class="e" d="M44.81,32.44s4-.85,2.84-2.9-5.06-2.11-5.06-2.11A7.75,7.75,0,0,0,39,29.67a1.24,1.24,0,0,0,0,1c.22.58,1.07,2,3.72,2.12C42.73,32.76,44.42,32.77,44.81,32.44Z"/><path class="e" d="M36.36,36c-.24-.65-1.77-.68-3.41-.06s-2.79,1.64-2.54,2.29v.09a2.9,2.9,0,0,0,3,1.37h.11a4.84,4.84,0,0,0,.65-.19,3.68,3.68,0,0,0,.57-.26l.16-.07A2.83,2.83,0,0,0,36.36,36Z"/><path class="f" d="M28.59,44.09s2.45,1.38,4.28,0,1.55-4.76,1.55-4.76c.18-.07,2.29,2.51,4.57,2.18s3-3,3-3"/><ellipse class="g" cx="39.93" cy="22.07" rx="2.42" ry="1.59" transform="translate(-5.1 14.75) rotate(-19.7)"/><ellipse class="g" cx="16.9" cy="31.32" rx="2.42" ry="1.59" transform="translate(-13.4 12.64) rotate(-30)"/><path class="g" d="M10.33,31.33s-2.87,6.13-2.84,9.29c0,0-4.86-2.75-4.68-10C2.81,30.63,8.22,29.07,10.33,31.33Z"/><path class="g" d="M42.57,16.82s6.28,2.54,8.41,4.87c0,0,1.69-5.32-3.37-10.49C47.61,11.2,42.59,13.74,42.57,16.82Z"/><path class="h" d="M23.84,9.33s.33,6.75-7.56,8.58c0,0-1.05.36.13,1.76a4.3,4.3,0,0,1,.26.79c.08.36,1.14.28,1.35.61s0,1.13.69,1.5,1.7.3,2.51,1.26,1.43.31,1.75.06.36-.31.53-1.1A1.6,1.6,0,0,0,25.18,24c1.39-.11,1.3-.09,1.73.05a2.47,2.47,0,0,0,1.76-.85c.25-.39.37-.34.89-.56s.76-.46.79-1.55A2.87,2.87,0,0,1,31.52,19c.3-.18.69-.11,1.65-.5s1.22-.4,1.91-1.92c0,0-.12-.24.24-.46a2.24,2.24,0,0,0,0-3.17l-.18-.16a1.43,1.43,0,0,0-1,0,16.68,16.68,0,0,0-3.16,0c-.6.2-2.23-.66-2.23-.66a7.87,7.87,0,0,0-2.9-1.07C24.89,11.12,23.84,9.33,23.84,9.33Z"/><path class="e" d="M19,.52a3.79,3.79,0,0,1,1.46,1.29,12.4,12.4,0,0,1,1,1.68,25.26,25.26,0,0,1,1.34,3.12,26.71,26.71,0,0,0,1.06,3,2.67,2.67,0,0,0-.12-.84,21.79,21.79,0,0,0-.57-2.25,21.79,21.79,0,0,0-1.25-3.23,11.45,11.45,0,0,0-1.06-1.78,6.46,6.46,0,0,0-.73-.84,2.84,2.84,0,0,0-1-.67Z"/><path class="e" d="M23.31,21.86c.3-2.1.52-4.14.65-6.08q.12-1.47.12-2.85V10.81l-.2-1.12c-.1.49-.19,1-.29,1.31l-.18.59c-.13.39-.27.77-.42,1.13a19.13,19.13,0,0,1-.94,2,21.44,21.44,0,0,1-2,3,17.17,17.17,0,0,1-1.54,1.76l-.59.59.6-.58a17.34,17.34,0,0,0,1.59-1.73,20.51,20.51,0,0,0,2.07-3,16.22,16.22,0,0,0,1-2c.15-.36.3-.74.44-1.13l.19-.61v1.87c0,.92,0,1.86-.08,2.83C23.65,17.71,23.49,19.75,23.31,21.86Z"/><path class="e" d="M30,20.78c-1.14-1.94-2.24-3.83-3.23-5.65-.5-.9-1-1.8-1.38-2.67-.22-.44-.41-.87-.59-1.31l-.24-.64c-.06-.15,0-.1,0-.14v-.08l.19.18.5.42c.33.28.66.54,1,.79.67.49,1.31.93,1.94,1.31a30.76,30.76,0,0,0,3.35,1.79c1,.44,1.74.74,2.27.93l.82.29-.81-.3a22.17,22.17,0,0,1-2.24-1,33.64,33.64,0,0,1-3.3-1.87c-.61-.39-1.25-.84-1.9-1.34l-1-.79a13.82,13.82,0,0,1-1.3-1.24l.15.58a4.44,4.44,0,0,0,.15.52c.08.22.15.45.24.67.18.44.38.88.59,1.32.43.87.9,1.77,1.42,2.67C27.59,17,28.74,18.9,30,20.78Z"/></svg>